<mxfile host="app.diagrams.net" modified="2023-12-01T01:48:30.811Z" agent="Mozilla/5.0 (Windows NT 10.0; Win64; x64) AppleWebKit/537.36 (KHTML, like Gecko) Chrome/115.0.0.0 Safari/537.36" version="22.1.5" etag="ICsP7VYGzoI7G6NNswsO" type="github">
  <diagram name="Page-1" id="GEE1oTz_SpNWNh2fKXdA">
    <mxGraphModel>
      <root>
        <mxCell id="0" />
        <mxCell id="1" parent="0" />
      </root>
    </mxGraphModel>
  </diagram>
</mxfile>
